<?xml version="1.0" encoding="utf-8"?>
<!-- Generator: Adobe Illustrator 26.4.1, SVG Export Plug-In . SVG Version: 6.00 Build 0)  -->
<svg version="1.1" id="Layer_1" xmlns="http://www.w3.org/2000/svg" xmlns:xlink="http://www.w3.org/1999/xlink" x="0px" y="0px"
	 viewBox="0 0 612 792" style="enable-background:new 0 0 612 792;" xml:space="preserve">
<style type="text/css">
	.st0{fill:url(#SVGID_1_);stroke:url(#SVGID_00000099634022223962804710000009954256868401377931_);stroke-miterlimit:10;}
</style>
<linearGradient id="SVGID_1_" gradientUnits="userSpaceOnUse" x1="164.79" y1="391.38" x2="418.73" y2="391.38" gradientTransform="matrix(1 0 0 -1 0 794)">
	<stop  offset="0" style="stop-color:#FFF33B"/>
	<stop  offset="5.950000e-02" style="stop-color:#FFE029"/>
	<stop  offset="0.1303" style="stop-color:#FFD217"/>
	<stop  offset="0.2032" style="stop-color:#FEC90E"/>
	<stop  offset="0.2809" style="stop-color:#FDC70C"/>
	<stop  offset="0.6685" style="stop-color:#F3903F"/>
	<stop  offset="0.8876" style="stop-color:#ED683C"/>
	<stop  offset="1" style="stop-color:#E93E3A"/>
</linearGradient>
<linearGradient id="SVGID_00000016780115687631831570000002808493881198546831_" gradientUnits="userSpaceOnUse" x1="164.29" y1="391.38" x2="419.23" y2="391.38" gradientTransform="matrix(1 0 0 -1 0 794)">
	<stop  offset="0" style="stop-color:#FFF33B"/>
	<stop  offset="5.950000e-02" style="stop-color:#FFE029"/>
	<stop  offset="0.1303" style="stop-color:#FFD217"/>
	<stop  offset="0.2032" style="stop-color:#FEC90E"/>
	<stop  offset="0.2809" style="stop-color:#FDC70C"/>
	<stop  offset="0.6685" style="stop-color:#F3903F"/>
	<stop  offset="0.8876" style="stop-color:#ED683C"/>
	<stop  offset="1" style="stop-color:#E93E3A"/>
</linearGradient>
<circle style="fill:url(#SVGID_1_);stroke:url(#SVGID_00000016780115687631831570000002808493881198546831_);stroke-miterlimit:10;" cx="291.8" cy="402.6" r="127"/>
<g>
	<g>
		<path d="M213.4,475c13.3-54.8,26.7-109.5,40-164.3c-3.4,0.8-6.7,1.5-10.1,2.3c8.7,23.2,17.3,46.3,26,69.5c1.4,3.7,6.5,6.1,8.8,1.5
			c10.8-22.2,20.3-44.9,28.4-68.3c-2.9,0.6-5.8,1.3-8.7,1.9c7.8,10.9,9.3,25.2,12.4,37.9c3.5,14.8,7.5,29.6,11.8,44.2
			c8.7,29.3,18.8,58.1,30.5,86.4c1.3,3.2,4.6,5.4,7.7,2.9c3.1-2.6,3.1-8.3,1.7-11.6c-11.9-28.7-22.3-58-30.9-87.9
			c-4.2-14.6-8.1-29.4-11.5-44.3c-3.2-13.8-5.7-28-14.1-39.7c-2.9-4-7.2-2.3-8.7,1.9c-7.6,22.1-16.5,43.8-26.7,64.8
			c2.9,0.5,5.9,1,8.8,1.5c-8.7-23.2-17.3-46.3-26-69.5c-0.9-2.3-3-4.5-5.6-3.9c-2.8,0.6-3.9,3.7-4.5,6.2
			c-13.3,54.8-26.7,109.5-40,164.3c-0.8,3.3,0.6,9,4.1,10.3C210.7,482.5,212.7,477.9,213.4,475L213.4,475z"/>
	</g>
</g>
<g>
	<g>
		<path d="M279.9,374.1c12.3,0.3,24.6,0.6,36.9,0.9c7.4,0.2,7.2-16.7-0.4-16.9c-12.3-0.3-24.6-0.6-36.9-0.9
			C272,357,272.3,373.9,279.9,374.1L279.9,374.1z"/>
	</g>
</g>
<g>
	<g>
		<path d="M359.4,321.1c-23.3,52.2-46.9,104.6-78,152.8c-2.1,3.3-2.1,8.8,0.3,12c2.2,3,5.8,3,7.9-0.2
			c31.8-49.2,55.8-102.9,79.6-156.2C372.4,322.1,363.9,310.9,359.4,321.1L359.4,321.1z"/>
	</g>
</g>
</svg>
