<?xml version="1.0" standalone="no"?>
<!DOCTYPE svg PUBLIC "-//W3C//DTD SVG 20010904//EN"
 "http://www.w3.org/TR/2001/REC-SVG-20010904/DTD/svg10.dtd">
<svg version="1.0" xmlns="http://www.w3.org/2000/svg"
 width="792.000000pt" height="792.000000pt" viewBox="0 0 792.000000 792.000000"
 preserveAspectRatio="xMidYMid meet">
<metadata>
Created by potrace 1.14, written by Peter Selinger 2001-2017
</metadata>
<g transform="translate(0.000000,792.000000) scale(0.100000,-0.100000)"
fill="#000000" stroke="none">
<path d="M3797 7103 c-1 -1 -38 -5 -82 -8 -151 -13 -194 -20 -350 -51 -102
-20 -206 -48 -335 -90 -30 -10 -57 -18 -60 -19 -47 -14 -278 -116 -357 -157
-283 -146 -500 -305 -733 -538 -122 -121 -219 -232 -280 -320 -14 -19 -27 -37
-31 -40 -13 -12 -141 -212 -178 -280 -71 -129 -138 -273 -177 -377 -13 -38
-29 -77 -34 -88 -17 -40 -77 -250 -94 -335 -44 -210 -47 -233 -62 -430 -17
-211 -2 -518 33 -705 3 -16 6 -37 8 -45 1 -8 5 -28 8 -45 4 -16 9 -39 11 -50
16 -78 76 -290 98 -343 6 -15 14 -36 18 -47 13 -35 43 -109 63 -155 27 -64
150 -307 170 -334 31 -44 77 -117 77 -121 0 -4 6 -12 13 -19 6 -8 19 -24 27
-36 18 -27 109 -150 125 -167 5 -6 28 -33 50 -60 88 -106 312 -321 410 -393
33 -25 62 -48 65 -51 9 -11 164 -115 240 -161 144 -87 254 -140 495 -239 35
-14 209 -71 230 -75 11 -2 65 -15 120 -28 55 -14 116 -28 135 -31 20 -3 45 -7
57 -9 12 -3 43 -7 70 -11 26 -4 59 -8 71 -10 143 -22 557 -23 679 -1 23 4 97
15 143 21 19 2 69 12 110 20 41 9 82 18 90 20 8 1 35 8 60 15 25 7 52 14 60
15 8 2 16 4 18 5 1 2 5 3 10 4 4 1 13 5 20 9 6 5 12 6 12 3 0 -9 222 72 317
115 23 10 47 19 52 19 6 0 11 5 11 10 0 6 6 10 13 10 12 0 111 48 167 80 112
65 146 85 148 92 2 4 8 8 14 8 5 0 24 11 42 25 18 14 36 25 40 25 4 0 14 6 21
12 33 30 45 38 54 38 5 0 11 4 13 8 2 5 35 33 73 63 150 116 343 307 460 454
44 55 83 102 88 103 4 2 7 8 7 13 0 5 16 30 35 56 55 75 50 67 123 193 66 113
109 193 112 205 1 6 10 26 20 45 25 49 100 231 103 250 1 8 5 20 8 25 3 6 16
44 28 85 13 41 27 86 31 100 5 14 13 48 19 75 7 28 14 61 17 75 18 80 30 146
40 220 2 19 7 46 9 59 23 130 23 582 -1 705 -2 11 -6 38 -9 61 -3 22 -12 76
-20 120 -14 74 -18 96 -29 143 -2 9 -7 31 -11 47 -4 17 -10 41 -15 55 -5 14
-18 59 -30 100 -12 41 -26 84 -30 95 -47 117 -74 191 -72 198 1 4 -2 7 -8 7
-5 0 -10 4 -10 10 0 22 -149 311 -169 330 -3 3 -14 21 -24 40 -16 32 -114 174
-169 245 -129 166 -359 397 -513 514 -22 17 -45 35 -51 40 -83 69 -325 216
-474 288 -129 63 -396 168 -420 166 -3 0 -16 4 -30 9 -14 5 -32 11 -40 13 -8
2 -40 10 -70 19 -30 8 -72 17 -94 20 -21 4 -42 8 -46 11 -8 5 -66 16 -110 20
-14 2 -26 4 -27 5 -2 1 -11 3 -20 4 -10 1 -43 5 -73 9 -127 15 -204 20 -358
21 -90 1 -164 1 -165 -1z"/>
</g>
</svg>
